<svg width="32" height="32" viewBox="0 0 32 32" fill="none" xmlns="http://www.w3.org/2000/svg">
<path d="M9.33329 10.6667H5.33329C3.86663 10.6667 2.66663 9.46675 2.66663 8.00008V5.33341C2.66663 3.86675 3.86663 2.66675 5.33329 2.66675H9.33329C10.8 2.66675 12 3.86675 12 5.33341V8.00008C12 9.46675 10.8 10.6667 9.33329 10.6667Z" fill="#6F51FF"/>
<path d="M27.7334 9.33333H22.9334C22.0534 9.33333 21.3334 8.61332 21.3334 7.73332V5.60002C21.3334 4.72002 22.0534 4 22.9334 4H27.7334C28.6134 4 29.3334 4.72002 29.3334 5.60002V7.73332C29.3334 8.61332 28.6134 9.33333 27.7334 9.33333Z" fill="#6F51FF"/>
<path d="M27.7334 19.3333H22.9334C22.0534 19.3333 21.3334 18.6133 21.3334 17.7333V15.6C21.3334 14.72 22.0534 14 22.9334 14H27.7334C28.6134 14 29.3334 14.72 29.3334 15.6V17.7333C29.3334 18.6133 28.6134 19.3333 27.7334 19.3333Z" fill="#6F51FF"/>
<path opacity="0.37" d="M21.3333 17.6667C21.88 17.6667 22.3333 17.2134 22.3333 16.6667C22.3333 16.1201 21.88 15.6667 21.3333 15.6667H17.6667V7.66675H21.3333C21.88 7.66675 22.3333 7.21341 22.3333 6.66675C22.3333 6.12008 21.88 5.66675 21.3333 5.66675H12C11.4533 5.66675 11 6.12008 11 6.66675C11 7.21341 11.4533 7.66675 12 7.66675H15.6667V24.0001C15.6667 26.0267 17.3067 27.6667 19.3333 27.6667H21.3333C21.88 27.6667 22.3333 27.2134 22.3333 26.6667C22.3333 26.1201 21.88 25.6667 21.3333 25.6667H19.3333C18.4133 25.6667 17.6667 24.9201 17.6667 24.0001V17.6667H21.3333Z" fill="#6F51FF"/>
<path d="M27.7334 29.3333H22.9334C22.0534 29.3333 21.3334 28.6133 21.3334 27.7333V25.6C21.3334 24.72 22.0534 24 22.9334 24H27.7334C28.6134 24 29.3334 24.72 29.3334 25.6V27.7333C29.3334 28.6133 28.6134 29.3333 27.7334 29.3333Z" fill="#6F51FF"/>
</svg>
