<svg width="32" height="32" viewBox="0 0 32 32" fill="none" xmlns="http://www.w3.org/2000/svg">
<path d="M17.9067 19.9999H5.86671C3.44004 19.9999 1.89337 17.4 3.06671 15.2666L6.17338 9.61326L9.08004 4.31992C10.2934 2.11992 13.4667 2.11992 14.68 4.31992L17.6 9.61326L19 12.1599L20.7067 15.2666C21.88 17.4 20.3334 19.9999 17.9067 19.9999Z" fill="#6F51FF"/>
<path opacity="0.4" d="M29.3333 20.6667C29.3333 25.4533 25.4533 29.3333 20.6667 29.3333C15.88 29.3333 12 25.4533 12 20.6667C12 20.44 12.0133 20.2267 12.0267 20H17.9067C20.3333 20 21.88 17.4 20.7067 15.2667L19 12.16C19.5333 12.0533 20.0933 12 20.6667 12C25.4533 12 29.3333 15.88 29.3333 20.6667Z" fill="#6F51FF"/>
</svg>
