<svg width="32" height="32" viewBox="0 0 32 32" fill="none" xmlns="http://www.w3.org/2000/svg">
<path d="M14.8669 6.9202L13.8269 5.88016C13.2003 5.25349 13.2003 4.24022 13.8269 3.61355L14.8669 2.57352C15.4936 1.94685 16.5069 1.94685 17.1336 2.57352L18.1736 3.61355C18.8003 4.24022 18.8003 5.25349 18.1736 5.88016L17.1336 6.9202C16.5069 7.54686 15.4936 7.54686 14.8669 6.9202Z" fill="#7051FF"/>
<path d="M15.9998 7.88009C15.4664 7.88009 14.9197 7.68014 14.5197 7.2668L13.4798 6.22676C12.6664 5.41343 12.6664 4.08012 13.4798 3.25346L14.5197 2.21342C15.3064 1.41342 16.6931 1.42675 17.4931 2.21342L18.5331 3.25346C19.3464 4.06679 19.3464 5.4001 18.5331 6.22676L17.4931 7.2668C17.0798 7.68014 16.5331 7.88009 15.9998 7.88009ZM15.9998 2.61348C15.7198 2.61348 15.4397 2.72014 15.2264 2.93347L14.1864 3.97343C13.7597 4.40009 13.7597 5.10682 14.1864 5.53349L15.2264 6.57344C15.6531 7.00011 16.3464 7.00011 16.7864 6.57344L17.8264 5.53349C18.2531 5.10682 18.2531 4.41343 17.8264 3.97343L16.7864 2.93347C16.5597 2.72014 16.2798 2.61348 15.9998 2.61348Z" fill="#7051FF"/>
<path d="M25.9335 13.0801H27.4002C28.2802 13.0801 29.0002 13.8001 29.0002 14.6801V16.1467C29.0002 17.0267 28.2802 17.7467 27.4002 17.7467H25.9335C25.0535 17.7467 24.3335 17.0267 24.3335 16.1467V14.6801C24.3335 13.8001 25.0535 13.0801 25.9335 13.0801Z" fill="#7051FF"/>
<path d="M27.4001 18.2533H25.9334C24.7734 18.2533 23.8268 17.3066 23.8268 16.1466V14.6799C23.8268 13.5199 24.7734 12.5732 25.9334 12.5732H27.4001C28.5601 12.5732 29.5068 13.5199 29.5068 14.6799V16.1466C29.4934 17.3066 28.5601 18.2533 27.4001 18.2533ZM25.9334 13.5866C25.3201 13.5866 24.8268 14.0799 24.8268 14.6933V16.1599C24.8268 16.7732 25.3201 17.2666 25.9334 17.2666H27.4001C28.0134 17.2666 28.5068 16.7732 28.5068 16.1599V14.6933C28.5068 14.0799 28.0134 13.5866 27.4001 13.5866H25.9334Z" fill="#7051FF"/>
<path d="M6.06655 13.0801H4.59987C3.71987 13.0801 2.99988 13.8001 2.99988 14.6801V16.1467C2.99988 17.0267 3.71987 17.7467 4.59987 17.7467H6.06655C6.94655 17.7467 7.66654 17.0267 7.66654 16.1467V14.6801C7.66654 13.8001 6.94655 13.0801 6.06655 13.0801Z" fill="#7051FF"/>
<path d="M6.06686 18.2533H4.60019C3.44019 18.2533 2.49353 17.3066 2.49353 16.1466V14.6799C2.49353 13.5199 3.44019 12.5732 4.60019 12.5732H6.06686C7.22686 12.5732 8.17352 13.5199 8.17352 14.6799V16.1466C8.16019 17.3066 7.22686 18.2533 6.06686 18.2533ZM4.60019 13.5866C3.98686 13.5866 3.49353 14.0799 3.49353 14.6933V16.1599C3.49353 16.7732 3.98686 17.2666 4.60019 17.2666H6.06686C6.6802 17.2666 7.17352 16.7732 7.17352 16.1599V14.6933C7.17352 14.0799 6.6802 13.5866 6.06686 13.5866H4.60019Z" fill="#7051FF"/>
<path fill-rule="evenodd" clip-rule="evenodd" d="M16.9466 5.69304C17.3371 5.30252 17.9703 5.30251 18.3608 5.69304L25.4275 12.7597C25.818 13.1502 25.818 13.7834 25.4275 14.1739C25.0369 14.5644 24.4038 14.5644 24.0133 14.1739L16.9466 7.10725C16.5561 6.71673 16.5561 6.08357 16.9466 5.69304Z" fill="#7051FF"/>
<path fill-rule="evenodd" clip-rule="evenodd" d="M15.0537 5.69304C15.4442 6.08357 15.4442 6.71673 15.0537 7.10725L7.98701 14.1739C7.59649 14.5644 6.96332 14.5644 6.5728 14.1739C6.18228 13.7834 6.18228 13.1502 6.5728 12.7597L13.6395 5.69304C14.03 5.30251 14.6632 5.30252 15.0537 5.69304Z" fill="#7051FF"/>
<path d="M17.6797 29.3464H14.2664C13.0397 29.3464 12.133 28.3597 12.3597 27.2931L12.9197 24.8264H19.0397L19.5997 27.2931C19.853 28.4264 18.9864 29.3464 17.6797 29.3464Z" fill="#7051FF"/>
<path opacity="0.4" d="M21.3867 22.7331L19.0267 24.8265H12.9067L10.5467 22.7331C9.17337 21.6131 9.17337 20.7465 10.2134 19.4265L14.3734 14.1732C14.6667 13.8132 15 13.5598 15.36 13.4398C15.7467 13.3065 16.1734 13.3065 16.56 13.4398C16.92 13.5732 17.2534 13.8132 17.5467 14.1732L21.7067 19.4265C22.76 20.7465 22.7067 21.5731 21.3867 22.7331Z" fill="#7051FF"/>
</svg>
