<svg width="32" height="32" viewBox="0 0 32 32" fill="none" xmlns="http://www.w3.org/2000/svg">
<path opacity="0.4" d="M29.3334 10.6667V21.5867C29.3334 26.4401 26.4401 29.3334 21.5867 29.3334H10.4134C5.56008 29.3334 2.66675 26.4401 2.66675 21.5867V10.6801L29.3334 10.6667Z" fill="#6F51FF"/>
<path d="M11.9999 23.6666C11.8533 23.6666 11.6933 23.6266 11.5599 23.56C10.5333 23.04 9.65328 22.2666 9.01328 21.3066C8.47995 20.5066 8.47995 19.48 9.01328 18.68C9.65328 17.72 10.5333 16.9466 11.5599 16.44C12.0533 16.1866 12.6533 16.4 12.9066 16.8933C13.1599 17.3866 12.9599 17.9866 12.4533 18.24C11.7333 18.6 11.1199 19.1466 10.6799 19.8133C10.5999 19.9333 10.5999 20.0933 10.6799 20.2266C11.1199 20.8933 11.7333 21.44 12.4533 21.8C12.9466 22.0533 13.1466 22.6533 12.9066 23.1466C12.7199 23.4666 12.3599 23.6666 11.9999 23.6666Z" fill="#6F51FF"/>
<path d="M20.28 23.6667C19.9067 23.6667 19.56 23.4667 19.3867 23.1201C19.1334 22.6267 19.3334 22.0267 19.84 21.7734C20.56 21.4134 21.1734 20.8667 21.6134 20.2001C21.6934 20.0801 21.6934 19.9201 21.6134 19.7867C21.1734 19.1201 20.56 18.5734 19.84 18.2134C19.3467 17.9601 19.1467 17.3601 19.3867 16.8667C19.64 16.3734 20.24 16.1734 20.7334 16.4134C21.76 16.9334 22.64 17.7067 23.28 18.6667C23.8134 19.4667 23.8134 20.4934 23.28 21.2934C22.64 22.2534 21.76 23.0267 20.7334 23.5334C20.5734 23.6267 20.4267 23.6667 20.28 23.6667Z" fill="#6F51FF"/>
<path d="M29.3334 10.4134V10.6667L2.66675 10.6801V10.4134C2.66675 5.56008 5.56008 2.66675 10.4134 2.66675H21.5867C26.4401 2.66675 29.3334 5.56008 29.3334 10.4134Z" fill="#6F51FF"/>
</svg>
